<?xml version="1.0" standalone="no"?>
<!DOCTYPE svg PUBLIC "-//W3C//DTD SVG 20010904//EN"
 "http://www.w3.org/TR/2001/REC-SVG-20010904/DTD/svg10.dtd">
<svg version="1.0" xmlns="http://www.w3.org/2000/svg"
 width="512.000000pt" height="512.000000pt" viewBox="0 0 512.000000 512.000000"
 preserveAspectRatio="xMidYMid meet">

<g transform="translate(0.000000,512.000000) scale(0.100000,-0.100000)"
fill="#000000" stroke="none">
<path d="M1338 3758 c-5 -154 -11 -168 -164 -365 -127 -164 -183 -265 -217
-393 l-22 -85 0 -1405 c0 -1382 0 -1406 20 -1438 11 -18 38 -41 61 -52 40 -20
58 -20 602 -18 549 3 561 3 589 24 65 47 63 30 63 656 l0 567 -372 3 -373 3
-34 24 c-61 44 -61 43 -61 556 0 513 0 512 61 556 l34 24 373 3 374 3 -4 267
c-4 212 -8 279 -22 327 -33 116 -86 210 -207 366 -159 207 -162 213 -167 372
l-4 127 -263 0 -263 0 -4 -122z"/>
<path d="M2756 2214 c-9 -24 -7 -161 4 -237 41 -284 226 -506 523 -628 105
-44 198 -55 277 -35 78 20 228 91 295 140 180 130 296 316 324 520 12 85 15
215 5 240 -6 14 -78 16 -714 16 -636 0 -708 -2 -714 -16z"/>
</g>
</svg>
